<svg xmlns="http://www.w3.org/2000/svg" viewBox="0 0 192 192" width="192" height="192" role="img" aria-label="OBXAlethia">
  <defs>
    <linearGradient id="g" x1="0" x2="1" y1="0" y2="1">
      <stop offset="0" stop-color="#6366f1" />
      <stop offset="1" stop-color="#22d3ee" />
    </linearGradient>
  </defs>
  <rect width="192" height="192" rx="36" fill="#020617" />
  <circle cx="96" cy="96" r="58" fill="url(#g)" />
  <path d="M74 118V74h18c8 0 14 6 14 14 0 5-2 9-6 12 6 2 10 7 10 14 0 9-7 16-16 16H74zm18-28c6 0 10-3 10-8s-4-8-10-8h-6v16h6zm2 30c7 0 12-4 12-10 0-6-5-10-12-10h-8v20h8z" fill="#020617" />
</svg>
