<svg xmlns="http://www.w3.org/2000/svg" viewBox="0 0 512 512" width="512" height="512" role="img" aria-label="OBXAlethia">
  <defs>
    <linearGradient id="g" x1="0" x2="1" y1="0" y2="1">
      <stop offset="0" stop-color="#6366f1" />
      <stop offset="1" stop-color="#22d3ee" />
    </linearGradient>
  </defs>
  <rect width="512" height="512" rx="96" fill="#020617" />
  <circle cx="256" cy="256" r="164" fill="url(#g)" />
  <path d="M202 316V196h60c28 0 50 22 50 50 0 18-8 33-22 42 22 6 36 24 36 44 0 30-24 54-54 54h-70zm62-76c20 0 34-12 34-30 0-18-14-30-34-30h-22v60h22zm6 116c24 0 42-14 42-36 0-22-18-36-42-36h-28v72h28z" fill="#020617" />
</svg>
